<mxfile host="app.diagrams.net" modified="2023-09-20T01:09:55.532Z" agent="Mozilla/5.0 (Windows NT 10.0; Win64; x64) AppleWebKit/537.36 (KHTML, like Gecko) Chrome/116.0.0.0 Safari/537.36" etag="1heIZrgc1roLfoNHy1L5" version="21.7.5" type="github">
  <diagram name="PÃ¡gina-1" id="beQriDPLVc3ucewHE8b_">
    <mxGraphModel dx="1035" dy="574" grid="1" gridSize="10" guides="1" tooltips="1" connect="1" arrows="1" fold="1" page="1" pageScale="1" pageWidth="827" pageHeight="1169" math="0" shadow="0">
      <root>
        <mxCell id="0" />
        <mxCell id="1" parent="0" />
        <mxCell id="bGpXx3aVkTVfgoU7m1wD-32" value="" style="rounded=1;whiteSpace=wrap;html=1;fillColor=#fff2cc;strokeColor=#d6b656;" vertex="1" parent="1">
          <mxGeometry x="27" y="930" width="800" height="580" as="geometry" />
        </mxCell>
        <mxCell id="bGpXx3aVkTVfgoU7m1wD-30" value="" style="rounded=1;whiteSpace=wrap;html=1;fillColor=#dae8fc;strokeColor=#6c8ebf;" vertex="1" parent="1">
          <mxGeometry x="20" y="260" width="800" height="580" as="geometry" />
        </mxCell>
        <mxCell id="bGpXx3aVkTVfgoU7m1wD-2" value="&lt;p style=&quot;margin:0px;margin-top:4px;text-align:center;&quot;&gt;Clientes&lt;br&gt;&lt;/p&gt;&lt;hr size=&quot;1&quot;&gt;&lt;p style=&quot;margin:0px;margin-left:4px;&quot;&gt;- tipoDocumento : String&lt;/p&gt;&lt;p style=&quot;margin:0px;margin-left:4px;&quot;&gt;- documento : String&lt;/p&gt;&lt;p style=&quot;margin:0px;margin-left:4px;&quot;&gt;- nombre : String&lt;/p&gt;&lt;p style=&quot;margin:0px;margin-left:4px;&quot;&gt;- correo : String&lt;/p&gt;&lt;hr size=&quot;1&quot;&gt;&lt;p style=&quot;border-color: var(--border-color); margin: 0px 0px 0px 4px;&quot;&gt;+ geTipoDocumento : String&lt;/p&gt;&lt;p style=&quot;border-color: var(--border-color); margin: 0px 0px 0px 4px;&quot;&gt;+ setTipoDocumento : void&lt;br&gt;&lt;/p&gt;&lt;p style=&quot;border-color: var(--border-color); margin: 0px 0px 0px 4px;&quot;&gt;+ getDocumento : String&lt;/p&gt;&lt;p style=&quot;border-color: var(--border-color); margin: 0px 0px 0px 4px;&quot;&gt;+ setDocumento : void&lt;br&gt;&lt;/p&gt;&lt;p style=&quot;border-color: var(--border-color); margin: 0px 0px 0px 4px;&quot;&gt;+ getNombre : String&lt;/p&gt;&lt;p style=&quot;border-color: var(--border-color); margin: 0px 0px 0px 4px;&quot;&gt;+ setNombre : void&lt;br&gt;&lt;/p&gt;&lt;p style=&quot;border-color: var(--border-color); margin: 0px 0px 0px 4px;&quot;&gt;- getCorreo : String&lt;/p&gt;&lt;p style=&quot;border-color: var(--border-color); margin: 0px 0px 0px 4px;&quot;&gt;- setCorreo : void&lt;br&gt;&lt;/p&gt;" style="verticalAlign=top;align=left;overflow=fill;fontSize=12;fontFamily=Helvetica;html=1;whiteSpace=wrap;" vertex="1" parent="1">
          <mxGeometry x="10" y="10" width="160" height="220" as="geometry" />
        </mxCell>
        <mxCell id="bGpXx3aVkTVfgoU7m1wD-3" value="&lt;p style=&quot;margin:0px;margin-top:4px;text-align:center;&quot;&gt;Clientes&lt;br&gt;&lt;/p&gt;&lt;hr size=&quot;1&quot;&gt;&lt;p style=&quot;margin:0px;margin-left:4px;&quot;&gt;- tipoDocumento : String&lt;/p&gt;&lt;p style=&quot;margin:0px;margin-left:4px;&quot;&gt;- documento : String&lt;/p&gt;&lt;p style=&quot;margin:0px;margin-left:4px;&quot;&gt;- nombre : String&lt;/p&gt;&lt;p style=&quot;margin:0px;margin-left:4px;&quot;&gt;- correo : String&lt;/p&gt;&lt;hr size=&quot;1&quot;&gt;&lt;p style=&quot;border-color: var(--border-color); margin: 0px 0px 0px 4px;&quot;&gt;+ getter &amp;amp; setter&lt;/p&gt;&lt;p style=&quot;border-color: var(--border-color); margin: 0px 0px 0px 4px;&quot;&gt;+ Crear&lt;/p&gt;&lt;p style=&quot;border-color: var(--border-color); margin: 0px 0px 0px 4px;&quot;&gt;+ Modificar&lt;/p&gt;&lt;p style=&quot;border-color: var(--border-color); margin: 0px 0px 0px 4px;&quot;&gt;+ Eliminar&lt;/p&gt;&lt;p style=&quot;border-color: var(--border-color); margin: 0px 0px 0px 4px;&quot;&gt;+ Consultar&lt;/p&gt;" style="verticalAlign=top;align=left;overflow=fill;fontSize=12;fontFamily=Helvetica;html=1;whiteSpace=wrap;" vertex="1" parent="1">
          <mxGeometry x="100" y="300" width="160" height="180" as="geometry" />
        </mxCell>
        <mxCell id="bGpXx3aVkTVfgoU7m1wD-4" value="&lt;p style=&quot;margin:0px;margin-top:4px;text-align:center;&quot;&gt;Productos&lt;br&gt;&lt;/p&gt;&lt;hr size=&quot;1&quot;&gt;&lt;p style=&quot;margin:0px;margin-left:4px;&quot;&gt;- codigo : String&lt;/p&gt;&lt;p style=&quot;margin:0px;margin-left:4px;&quot;&gt;- nombre : String&lt;/p&gt;&lt;p style=&quot;margin:0px;margin-left:4px;&quot;&gt;- descricion : String&lt;/p&gt;&lt;p style=&quot;margin:0px;margin-left:4px;&quot;&gt;- categoria : String&lt;/p&gt;&lt;hr size=&quot;1&quot;&gt;&lt;p style=&quot;border-color: var(--border-color); margin: 0px 0px 0px 4px;&quot;&gt;+ getter &amp;amp; setter&lt;/p&gt;&lt;p style=&quot;border-color: var(--border-color); margin: 0px 0px 0px 4px;&quot;&gt;+ Crear&lt;/p&gt;&lt;p style=&quot;border-color: var(--border-color); margin: 0px 0px 0px 4px;&quot;&gt;+ Modificar&lt;/p&gt;&lt;p style=&quot;border-color: var(--border-color); margin: 0px 0px 0px 4px;&quot;&gt;+ Eliminar&lt;/p&gt;&lt;p style=&quot;border-color: var(--border-color); margin: 0px 0px 0px 4px;&quot;&gt;+ Consultar&lt;/p&gt;" style="verticalAlign=top;align=left;overflow=fill;fontSize=12;fontFamily=Helvetica;html=1;whiteSpace=wrap;" vertex="1" parent="1">
          <mxGeometry x="610" y="480" width="160" height="180" as="geometry" />
        </mxCell>
        <mxCell id="bGpXx3aVkTVfgoU7m1wD-5" value="&lt;p style=&quot;margin:0px;margin-top:4px;text-align:center;&quot;&gt;Inventario&lt;br&gt;&lt;/p&gt;&lt;hr size=&quot;1&quot;&gt;&lt;p style=&quot;margin:0px;margin-left:4px;&quot;&gt;- codigo : String&lt;/p&gt;&lt;p style=&quot;margin:0px;margin-left:4px;&quot;&gt;- fecha : Date&lt;/p&gt;&lt;p style=&quot;margin:0px;margin-left:4px;&quot;&gt;- stock : Integer&lt;/p&gt;&lt;p style=&quot;margin:0px;margin-left:4px;&quot;&gt;- porcentajeDescuento Double&lt;/p&gt;&lt;p style=&quot;margin:0px;margin-left:4px;&quot;&gt;- porcentajeIva : Double&lt;/p&gt;&lt;hr size=&quot;1&quot;&gt;&lt;p style=&quot;border-color: var(--border-color); margin: 0px 0px 0px 4px;&quot;&gt;+ getter &amp;amp; setter&lt;/p&gt;&lt;p style=&quot;border-color: var(--border-color); margin: 0px 0px 0px 4px;&quot;&gt;+ Crear&lt;/p&gt;&lt;p style=&quot;border-color: var(--border-color); margin: 0px 0px 0px 4px;&quot;&gt;+ Modificar&lt;/p&gt;&lt;p style=&quot;border-color: var(--border-color); margin: 0px 0px 0px 4px;&quot;&gt;+ Eliminar&lt;/p&gt;&lt;p style=&quot;border-color: var(--border-color); margin: 0px 0px 0px 4px;&quot;&gt;+ Consultar&lt;/p&gt;" style="verticalAlign=top;align=left;overflow=fill;fontSize=12;fontFamily=Helvetica;html=1;whiteSpace=wrap;" vertex="1" parent="1">
          <mxGeometry x="330" y="600" width="190" height="190" as="geometry" />
        </mxCell>
        <mxCell id="bGpXx3aVkTVfgoU7m1wD-6" value="" style="endArrow=diamondThin;endFill=1;endSize=24;html=1;rounded=0;exitX=1;exitY=0.5;exitDx=0;exitDy=0;entryX=-0.011;entryY=0.342;entryDx=0;entryDy=0;entryPerimeter=0;" edge="1" parent="1" source="bGpXx3aVkTVfgoU7m1wD-5" target="bGpXx3aVkTVfgoU7m1wD-4">
          <mxGeometry width="160" relative="1" as="geometry">
            <mxPoint x="180" y="540" as="sourcePoint" />
            <mxPoint x="340" y="540" as="targetPoint" />
          </mxGeometry>
        </mxCell>
        <mxCell id="bGpXx3aVkTVfgoU7m1wD-7" value="&lt;p style=&quot;margin:0px;margin-top:4px;text-align:center;&quot;&gt;FacturaCliente&lt;br&gt;&lt;/p&gt;&lt;hr size=&quot;1&quot;&gt;&lt;p style=&quot;margin:0px;margin-left:4px;&quot;&gt;- numeroFactura : String&lt;/p&gt;&lt;p style=&quot;margin:0px;margin-left:4px;&quot;&gt;- fecha : Date&lt;/p&gt;&lt;p style=&quot;margin:0px;margin-left:4px;&quot;&gt;- estadoFactura: String&lt;/p&gt;&lt;hr size=&quot;1&quot;&gt;&lt;p style=&quot;border-color: var(--border-color); margin: 0px 0px 0px 4px;&quot;&gt;+ getter &amp;amp; setter&lt;/p&gt;&lt;p style=&quot;border-color: var(--border-color); margin: 0px 0px 0px 4px;&quot;&gt;+ Crear&lt;/p&gt;&lt;p style=&quot;border-color: var(--border-color); margin: 0px 0px 0px 4px;&quot;&gt;+ Modificar&lt;/p&gt;&lt;p style=&quot;border-color: var(--border-color); margin: 0px 0px 0px 4px;&quot;&gt;+ Eliminar&lt;/p&gt;&lt;p style=&quot;border-color: var(--border-color); margin: 0px 0px 0px 4px;&quot;&gt;+ Consultar&lt;/p&gt;" style="verticalAlign=top;align=left;overflow=fill;fontSize=12;fontFamily=Helvetica;html=1;whiteSpace=wrap;" vertex="1" parent="1">
          <mxGeometry x="60" y="520" width="190" height="190" as="geometry" />
        </mxCell>
        <mxCell id="bGpXx3aVkTVfgoU7m1wD-8" value="" style="endArrow=diamondThin;endFill=0;endSize=24;html=1;rounded=0;exitX=0.562;exitY=0.007;exitDx=0;exitDy=0;exitPerimeter=0;entryX=0.29;entryY=1.013;entryDx=0;entryDy=0;entryPerimeter=0;" edge="1" parent="1" source="bGpXx3aVkTVfgoU7m1wD-7" target="bGpXx3aVkTVfgoU7m1wD-3">
          <mxGeometry width="160" relative="1" as="geometry">
            <mxPoint x="180" y="790" as="sourcePoint" />
            <mxPoint x="140" y="560" as="targetPoint" />
          </mxGeometry>
        </mxCell>
        <mxCell id="bGpXx3aVkTVfgoU7m1wD-9" value="&lt;p style=&quot;margin:0px;margin-top:4px;text-align:center;&quot;&gt;DetalleFactura&lt;br&gt;&lt;/p&gt;&lt;hr size=&quot;1&quot;&gt;&lt;p style=&quot;margin:0px;margin-left:4px;&quot;&gt;- cantidad: Integer&lt;/p&gt;&lt;p style=&quot;margin:0px;margin-left:4px;&quot;&gt;- valorBruto : Double&lt;/p&gt;&lt;p style=&quot;margin:0px;margin-left:4px;&quot;&gt;- valorNeto : Double&lt;br&gt;&lt;/p&gt;&lt;p style=&quot;margin:0px;margin-left:4px;&quot;&gt;- valorDescuento : Double&lt;br&gt;&lt;/p&gt;&lt;p style=&quot;margin:0px;margin-left:4px;&quot;&gt;- valorIva : Double&lt;/p&gt;&lt;hr size=&quot;1&quot;&gt;&lt;p style=&quot;border-color: var(--border-color); margin: 0px 0px 0px 4px;&quot;&gt;+ getter &amp;amp; setter&lt;/p&gt;&lt;p style=&quot;border-color: var(--border-color); margin: 0px 0px 0px 4px;&quot;&gt;+ Crear&lt;/p&gt;&lt;p style=&quot;border-color: var(--border-color); margin: 0px 0px 0px 4px;&quot;&gt;+ Modificar&lt;/p&gt;&lt;p style=&quot;border-color: var(--border-color); margin: 0px 0px 0px 4px;&quot;&gt;+ Eliminar&lt;/p&gt;&lt;p style=&quot;border-color: var(--border-color); margin: 0px 0px 0px 4px;&quot;&gt;+ Consultar&lt;/p&gt;" style="verticalAlign=top;align=left;overflow=fill;fontSize=12;fontFamily=Helvetica;html=1;whiteSpace=wrap;" vertex="1" parent="1">
          <mxGeometry x="330" y="380" width="190" height="190" as="geometry" />
        </mxCell>
        <mxCell id="bGpXx3aVkTVfgoU7m1wD-10" value="" style="endArrow=diamondThin;endFill=1;endSize=24;html=1;rounded=0;entryX=0.999;entryY=0.123;entryDx=0;entryDy=0;exitX=0;exitY=0.25;exitDx=0;exitDy=0;entryPerimeter=0;" edge="1" parent="1" source="bGpXx3aVkTVfgoU7m1wD-9" target="bGpXx3aVkTVfgoU7m1wD-7">
          <mxGeometry width="160" relative="1" as="geometry">
            <mxPoint x="170" y="800" as="sourcePoint" />
            <mxPoint x="330" y="800" as="targetPoint" />
          </mxGeometry>
        </mxCell>
        <mxCell id="bGpXx3aVkTVfgoU7m1wD-11" value="" style="endArrow=diamondThin;endFill=1;endSize=24;html=1;rounded=0;entryX=-0.028;entryY=0.153;entryDx=0;entryDy=0;exitX=0.99;exitY=0.59;exitDx=0;exitDy=0;entryPerimeter=0;exitPerimeter=0;" edge="1" parent="1" source="bGpXx3aVkTVfgoU7m1wD-9" target="bGpXx3aVkTVfgoU7m1wD-4">
          <mxGeometry width="160" relative="1" as="geometry">
            <mxPoint x="494" y="745" as="sourcePoint" />
            <mxPoint x="414" y="700" as="targetPoint" />
          </mxGeometry>
        </mxCell>
        <mxCell id="bGpXx3aVkTVfgoU7m1wD-12" value="cliente" style="shape=table;startSize=30;container=1;collapsible=1;childLayout=tableLayout;fixedRows=1;rowLines=0;fontStyle=1;align=center;resizeLast=1;html=1;" vertex="1" parent="1">
          <mxGeometry x="100" y="1010" width="190" height="180" as="geometry" />
        </mxCell>
        <mxCell id="bGpXx3aVkTVfgoU7m1wD-13" value="" style="shape=tableRow;horizontal=0;startSize=0;swimlaneHead=0;swimlaneBody=0;fillColor=none;collapsible=0;dropTarget=0;points=[[0,0.5],[1,0.5]];portConstraint=eastwest;top=0;left=0;right=0;bottom=1;" vertex="1" parent="bGpXx3aVkTVfgoU7m1wD-12">
          <mxGeometry y="30" width="190" height="30" as="geometry" />
        </mxCell>
        <mxCell id="bGpXx3aVkTVfgoU7m1wD-14" value="PK" style="shape=partialRectangle;connectable=0;fillColor=none;top=0;left=0;bottom=0;right=0;fontStyle=1;overflow=hidden;whiteSpace=wrap;html=1;" vertex="1" parent="bGpXx3aVkTVfgoU7m1wD-13">
          <mxGeometry width="30" height="30" as="geometry">
            <mxRectangle width="30" height="30" as="alternateBounds" />
          </mxGeometry>
        </mxCell>
        <mxCell id="bGpXx3aVkTVfgoU7m1wD-15" value="id" style="shape=partialRectangle;connectable=0;fillColor=none;top=0;left=0;bottom=0;right=0;align=left;spacingLeft=6;fontStyle=5;overflow=hidden;whiteSpace=wrap;html=1;" vertex="1" parent="bGpXx3aVkTVfgoU7m1wD-13">
          <mxGeometry x="30" width="160" height="30" as="geometry">
            <mxRectangle width="160" height="30" as="alternateBounds" />
          </mxGeometry>
        </mxCell>
        <mxCell id="bGpXx3aVkTVfgoU7m1wD-16" value="" style="shape=tableRow;horizontal=0;startSize=0;swimlaneHead=0;swimlaneBody=0;fillColor=none;collapsible=0;dropTarget=0;points=[[0,0.5],[1,0.5]];portConstraint=eastwest;top=0;left=0;right=0;bottom=0;" vertex="1" parent="bGpXx3aVkTVfgoU7m1wD-12">
          <mxGeometry y="60" width="190" height="30" as="geometry" />
        </mxCell>
        <mxCell id="bGpXx3aVkTVfgoU7m1wD-17" value="" style="shape=partialRectangle;connectable=0;fillColor=none;top=0;left=0;bottom=0;right=0;editable=1;overflow=hidden;whiteSpace=wrap;html=1;" vertex="1" parent="bGpXx3aVkTVfgoU7m1wD-16">
          <mxGeometry width="30" height="30" as="geometry">
            <mxRectangle width="30" height="30" as="alternateBounds" />
          </mxGeometry>
        </mxCell>
        <mxCell id="bGpXx3aVkTVfgoU7m1wD-18" value="tipo_documento Varchar(50)" style="shape=partialRectangle;connectable=0;fillColor=none;top=0;left=0;bottom=0;right=0;align=left;spacingLeft=6;overflow=hidden;whiteSpace=wrap;html=1;" vertex="1" parent="bGpXx3aVkTVfgoU7m1wD-16">
          <mxGeometry x="30" width="160" height="30" as="geometry">
            <mxRectangle width="160" height="30" as="alternateBounds" />
          </mxGeometry>
        </mxCell>
        <mxCell id="bGpXx3aVkTVfgoU7m1wD-19" value="" style="shape=tableRow;horizontal=0;startSize=0;swimlaneHead=0;swimlaneBody=0;fillColor=none;collapsible=0;dropTarget=0;points=[[0,0.5],[1,0.5]];portConstraint=eastwest;top=0;left=0;right=0;bottom=0;" vertex="1" parent="bGpXx3aVkTVfgoU7m1wD-12">
          <mxGeometry y="90" width="190" height="30" as="geometry" />
        </mxCell>
        <mxCell id="bGpXx3aVkTVfgoU7m1wD-20" value="" style="shape=partialRectangle;connectable=0;fillColor=none;top=0;left=0;bottom=0;right=0;editable=1;overflow=hidden;whiteSpace=wrap;html=1;" vertex="1" parent="bGpXx3aVkTVfgoU7m1wD-19">
          <mxGeometry width="30" height="30" as="geometry">
            <mxRectangle width="30" height="30" as="alternateBounds" />
          </mxGeometry>
        </mxCell>
        <mxCell id="bGpXx3aVkTVfgoU7m1wD-21" value="documento Varchar(50)" style="shape=partialRectangle;connectable=0;fillColor=none;top=0;left=0;bottom=0;right=0;align=left;spacingLeft=6;overflow=hidden;whiteSpace=wrap;html=1;" vertex="1" parent="bGpXx3aVkTVfgoU7m1wD-19">
          <mxGeometry x="30" width="160" height="30" as="geometry">
            <mxRectangle width="160" height="30" as="alternateBounds" />
          </mxGeometry>
        </mxCell>
        <mxCell id="bGpXx3aVkTVfgoU7m1wD-22" value="" style="shape=tableRow;horizontal=0;startSize=0;swimlaneHead=0;swimlaneBody=0;fillColor=none;collapsible=0;dropTarget=0;points=[[0,0.5],[1,0.5]];portConstraint=eastwest;top=0;left=0;right=0;bottom=0;" vertex="1" parent="bGpXx3aVkTVfgoU7m1wD-12">
          <mxGeometry y="120" width="190" height="30" as="geometry" />
        </mxCell>
        <mxCell id="bGpXx3aVkTVfgoU7m1wD-23" value="" style="shape=partialRectangle;connectable=0;fillColor=none;top=0;left=0;bottom=0;right=0;editable=1;overflow=hidden;whiteSpace=wrap;html=1;" vertex="1" parent="bGpXx3aVkTVfgoU7m1wD-22">
          <mxGeometry width="30" height="30" as="geometry">
            <mxRectangle width="30" height="30" as="alternateBounds" />
          </mxGeometry>
        </mxCell>
        <mxCell id="bGpXx3aVkTVfgoU7m1wD-24" value="nombre Varchar(50)" style="shape=partialRectangle;connectable=0;fillColor=none;top=0;left=0;bottom=0;right=0;align=left;spacingLeft=6;overflow=hidden;whiteSpace=wrap;html=1;" vertex="1" parent="bGpXx3aVkTVfgoU7m1wD-22">
          <mxGeometry x="30" width="160" height="30" as="geometry">
            <mxRectangle width="160" height="30" as="alternateBounds" />
          </mxGeometry>
        </mxCell>
        <mxCell id="bGpXx3aVkTVfgoU7m1wD-25" value="" style="shape=tableRow;horizontal=0;startSize=0;swimlaneHead=0;swimlaneBody=0;fillColor=none;collapsible=0;dropTarget=0;points=[[0,0.5],[1,0.5]];portConstraint=eastwest;top=0;left=0;right=0;bottom=0;" vertex="1" parent="bGpXx3aVkTVfgoU7m1wD-12">
          <mxGeometry y="150" width="190" height="30" as="geometry" />
        </mxCell>
        <mxCell id="bGpXx3aVkTVfgoU7m1wD-26" value="" style="shape=partialRectangle;connectable=0;fillColor=none;top=0;left=0;bottom=0;right=0;editable=1;overflow=hidden;whiteSpace=wrap;html=1;" vertex="1" parent="bGpXx3aVkTVfgoU7m1wD-25">
          <mxGeometry width="30" height="30" as="geometry">
            <mxRectangle width="30" height="30" as="alternateBounds" />
          </mxGeometry>
        </mxCell>
        <mxCell id="bGpXx3aVkTVfgoU7m1wD-27" value="correo Varchar(50)" style="shape=partialRectangle;connectable=0;fillColor=none;top=0;left=0;bottom=0;right=0;align=left;spacingLeft=6;overflow=hidden;whiteSpace=wrap;html=1;" vertex="1" parent="bGpXx3aVkTVfgoU7m1wD-25">
          <mxGeometry x="30" width="160" height="30" as="geometry">
            <mxRectangle width="160" height="30" as="alternateBounds" />
          </mxGeometry>
        </mxCell>
        <mxCell id="bGpXx3aVkTVfgoU7m1wD-28" value="&lt;font style=&quot;font-size: 18px;&quot;&gt;&lt;b&gt;Diagrama de clases&lt;/b&gt;&lt;/font&gt;" style="text;strokeColor=none;fillColor=none;spacingLeft=4;spacingRight=4;overflow=hidden;rotatable=0;points=[[0,0.5],[1,0.5]];portConstraint=eastwest;fontSize=12;whiteSpace=wrap;html=1;strokeWidth=3;" vertex="1" parent="1">
          <mxGeometry x="310" y="320" width="250" height="30" as="geometry" />
        </mxCell>
        <mxCell id="bGpXx3aVkTVfgoU7m1wD-31" value="&lt;font style=&quot;font-size: 18px;&quot;&gt;&lt;b&gt;Modelo Relacional&lt;/b&gt;&lt;/font&gt;" style="text;strokeColor=none;fillColor=none;spacingLeft=4;spacingRight=4;overflow=hidden;rotatable=0;points=[[0,0.5],[1,0.5]];portConstraint=eastwest;fontSize=12;whiteSpace=wrap;html=1;strokeWidth=3;" vertex="1" parent="1">
          <mxGeometry x="310" y="970" width="250" height="30" as="geometry" />
        </mxCell>
        <mxCell id="bGpXx3aVkTVfgoU7m1wD-33" value="&lt;font style=&quot;font-size: 18px;&quot;&gt;&lt;b&gt;Modelo Relacional&lt;/b&gt;&lt;/font&gt;" style="text;strokeColor=none;fillColor=none;spacingLeft=4;spacingRight=4;overflow=hidden;rotatable=0;points=[[0,0.5],[1,0.5]];portConstraint=eastwest;fontSize=12;whiteSpace=wrap;html=1;strokeWidth=3;" vertex="1" parent="1">
          <mxGeometry x="270" y="1600" width="250" height="30" as="geometry" />
        </mxCell>
        <mxCell id="bGpXx3aVkTVfgoU7m1wD-34" value="" style="shape=image;verticalLabelPosition=bottom;labelBackgroundColor=default;verticalAlign=top;aspect=fixed;imageAspect=0;image=data:image/png,iVBORw0KGgoAAAANSUhEUgAAAm4AAAE8CAYAAAB5Bj1yAAAgAElEQVR4Ae2de9gkRXm381/++YxRoxFINIasEA/E5SjqgoCArKCigBijZjGgEkERoiwSjeCKKKiLiiIsIKdkERHFxZVTXFBQYYMiokYhHlEOYiIiWU71XXfFZ97eYabnsNPzdvfcdV3zzjvd1dVVT/2q6q6n+vAHT3rSk5IfbaAG1IAaUANqQA2ogfpr4A+spPpXknVkHakBNaAG1IAaUANoQHDT46jHVQ2oATWgBtSAGmiIBgS3hlSUMy1nWmpADagBNaAG1IDgJrg5y1IDakANqAE1oAYaogHBrSEV5SzLWZYaUANqQA2oATUguAluzrLUgBpQA2pADaiBhmhAcGtIRTnLcpalBtSAGlADakANCG6Cm7MsNaAG1IAaUANqoCEaGBnc/t8Jt6eyj7MBZwNqQA2oATWgBtTArGigjInYN2k7jAVuDz74YOr1qSKDky6w6dmZqAE1oAbUgBpQA5PSAOzTi4nYVgUXCW4NcY1OSmCmY2elBtSAGlADamByGmg8uFEAP9pADagBNaAG1IAamBUNNNrj9urzf5r8aAM1oAbUgBpQA2pgFjQAnDYa3L7//e8nP9pADagBNaAG1IAamAUNCG6Cn+CrBtSAGlADakANNEQDjQC3sjXrWaBry+gsUg2oATWgBtSAGkADZUzEvknfCDLyXaXFDJAh1q8Vr+JVA2pADagBNaAGZl0DMFEVsFZkL8GtIa7YWW8Mlt8BQQ2oATWgBuquAcFNqNKbqQbUgBpQA2pADTREA60Etw9f9Yv0tZt+qAgbIsK6z27MnzNwNaAG1IAaqEIDsArMMkrarQG3G27+QTps9V1pi3PWpc3PejA97tSH094X/iadds3PRjLIKMYzrg1ZDagBNaAG1IAaGFUDsAmM8ienPpyZZYuz16W3rL4rwTKD0moFuFHQJ5z2UNrlM/enk29Ylx9Sd+3PH0gHXbYuPfmMh9IbL7l7oCEGGcr9Nkw1oAbUgBpQA2pgQzUAk8AmMAqswoN1YRcYBpYZBG+tADcolQL3eqrwGd/GA3e/4OayqRpQA2pADagBNTDvGoBJYJNezALLsHpYBoetADdcjOFp62WILc59IB3/5V+WGqLMSO5zhqUG1IAaUANqQA1sqAZgEZikF6uwDZbhkq+y8zQe3Lioj2va+hmB7UuvXpd2Pv/eUkOUGcl9NlY1oAbUgBpQA2pgQzUAi8AkZcwC05TdsNB4cOOODC7ui3XiXsbY63Pr0utXeZ3bhgrO4+201IAaUANqQA2MrwFYBCbpxSpsg2W4ubLsyRiNBzcExJ0ZXOTXyxA33flg+qNTUrr8m7fqcfPaBjWgBtSAGlADamDeNACLwCSwSS9mgWVgmjI4bgW4cVstd2h0X+yHYQ69cl1afMFvS41QZiD3jT+z0HbaTg2oATWgBtTA+hqASWCTbniDYWCZQY8xawW4IQpur+VODS76Y/0YVyRUi4E+cvVtgpszLDWgBtSAGlADamDeNQCTwCYwCqwCs8AuMMwwjy9rDbgF0XPHBhf/sY7s8uj6lB828lu7qAE1oAbUgBqYXw3AKLAKzDLKky9aB24KcX6FqP21vxpQA2pADaiB6jQguOk2nne3sQ28ugaubbWtGlADaqBdGhDcBDfBTQ2oATWgBtSAGmiIBgS3hlSUM6Z2zZisT+tTDagBNaAGxtGA4Ca4OctSA2pADagBNaAGGqIBwa0hFTUOlXuMszk1oAbUgBpQA+3SgOAmuDnLUgNqQA2oATWgBhqiAcGtIRXljKldMybr0/pUA2pADaiBcTQguAluzrLUgBpQA2pADaiBhmhAcGtIRY1D5R7jbE4NqAE1oAbUQLs0ILgJbs6y1IAaUANqQA2ogYZoQHBrSEU5Y2rXjMn6tD7VgBpQA2pgHA0IboKbsyw1oAbUgBpQA2qgIRoQ3BpSUeNQucc4m1MDakANqAE10C4NCG6Cm7MsNaAG1IAaUANqoCEaENwaUlHOmNo1Y7I+rU81oAbUgBoYRwOCm+DmLEsNqAE1oAbUgBpoiAYEt4ZU1DhU7jHTm81989JLkx9tULUGbNPTa9PaWlvXVQOCm+DmLGsCGqh6wDZ9oRAN1HUgMV9CjhqYngYEtwkM2gp2eoKtq60FK8FqGhqoq/7Nl32gGpieBgS3GoDb+StXpsV77NHzs2bNmnTU0qVpv333nehs+6Tly9c736GHHJI4V9Mb39q1axOfaZdjGoO25xAOp61rzze9wVhba+thNSC41QDcACbgjQ+ABkTFbyoy9g9bqcPEAwYPWLKkc57ly5enLRcuTCtWrJg69AyT32HjAKSUa9j4k4onVAlV09DApPRqOkKCGmiuBgS3GoBbsQEBHcBHcduqVas6QLVy5crE573LlmVA6Y6LtymgrHtfMU3i8CluI93NFixYb1uch7jdHrmApKK3jjhAYKRLfkiD37Hv9BUrOnkvyy/5wR7F9EmH82ITtvPhf7bzDfjusGjRemXjvMTrZdvI54Z+T2PQ9hzC4Ybq1OObO1hbd9ZdaEBwawC4BSBRaQDUVgsX5u+ihy4qlH1ACvsAFZZgY1/xuxe4sZ/jA4QCmgAt0mRfLENyPIDEvmXLlnX2AVvFcwJNHEfa7MOrF/njf+JSPmAPaIxzA3uRPvtIg7RIh2O695Ev9pMv9lN+4rKN85BHtvF/gCT7J/URqoSqaWhgUno1ncm1fW2pLaetAcFtgoP3JCqvl1eoG9yIE+cCWAAevoGo7mvhdly0KANTxI/vfuAW0ANAATkRn2/2AT2ca5ONNuqAFPs4N5A0CNwArkiTPBTzWyx7EdSIT1yAL/IRYMbv4nFFW8W+ogeQPHZ7FYm3oZ9pDNqeQzjcUJ16/Ia3dW2oDedbA4LbBAbtSVZiEUIi3SKM9AIu4AyQ6bWvV3qk2ysu2wPcOGcRquIY4KkbziKffHfvA5SKHjfSj/jkgfzF78hrwBVx40MaETfy2H0cv4u24nd3XLZ1Q2GksyHfQpVQNQ0NbIhGPVbgUAPt0IDg1kBwC89TNELADQ8Z3rDufcBXrxsOeoEbwIQnLbx3QE+cg+84pghjxf38Tz6KXrVi3G6o6wdu4UW8as2aVPywnXN0w1gAH/u6wa1X+cND2Z33Dfk9jUHbcwiHG6JRj23HoG09Wo+CWwPBregxAoZiSZP/gRJgicbN91MLv4sNPiAstnEsAMh2tgFJxfMEgEXawFksQRKX30BbQFfEIz3SIc1hwY24wFnxWjTSYTk29pUtlRaBk+OKnkPSLO4nvUl8hCqhahoamIRWTWMybV47asf50oDgNqGBe1IVWPQeRZpFLxIgQhzgA1gCzACmiMt+QI59fHNs7Ct+Ew/vWnyIWwQl4uKpYzvn6t4PmMU+YJH0Iv1Im/14AMcBt0g/ykEeAgb5vx+4AY6clw//k6fIA2kV04n8TuJ7GoO25xAOJ6FV0xA41ECzNSC41QzcBjUooCggiWXEfvHL9vU7pt920goI6o7Tbx/x+x3TnUbZb9IYpyzdx4ybTlneivuEKqFqGhooas7/mz34Wn/W37gaENwaDG7jVrrHTb7DmMag7TmEQ9vu5NuuNtWmTdOA4NYwcOM6MT5NE1rb8ytUCVXT0EDb25HlE6LUwGANCG4NAzdFPVjU82GjaQzankM4nA9te8569jnWy+zWi+AmuOm9m4AGhCqhahoacLCe3cHaurfuQwOC2wQG7TCm37PbsKYxaHsO4dA+Znb7GOveug8NCG6Cmx63CWhAqBKqpqGB6Lj9dhBXA7OrAcFtAoO2DWh2G1DU/TQGbc8hHIbe/LbPUQOzqwHBTXDT4zYBDQhVQtU0NOBgPbuDtXVv3YcGBLcJDNphTL9nt2FNY9D2HMKhfczs9jHWvXUfGhDcBDc9bhPQgFAlVE1DA9Fx++0grgZmVwOC2wQGbRvQ7DYg6966VwNqQA2ogWlqQHAT3PS4qQE1oAbUgBpQAw3RgODWkIqaJs17LmePakANqAE1oAbqqQHBTXBzlqUG1IAaUANqQA00RAOCW0MqyplPPWc+1ov1ogbUgBpQA9PUgOAmuDnLmoAGpnFHoefwztVpDg6eSxhRA/XUgOA2gUFbcddT3NOsF6FKqJqGBqapac9lv6YG6qkBwU1w0+M2AQ1MY9D2HMKhA2k9B1LrxXqZpgYEtwkM2pOosMV77JHis9+++6aTli9Pa9eubTxUrVmzpvFlGKZ+hSqhahoaGEaLxhEi1EC7NSC41QTcNtloowxr569cmfgcsGRJ2mrhwsbDGzBKedrekUxj0PYcwmHb25HlazdwWL+TqV/BrUbg1u2dAt6OWrq0Az3sP/SQQzLU4ZErNgK8c8TlmOK+FStWpFWrVnXirly5MvHhWPYBVRxHuqQf54jfcY5+6RN/+fLlOU3OXTyOfACfbOdckRbbu+PGvqZ+C1VC1TQ00NT2Yb4nM2BrR+2IBgS3GoMbgLXDokUZeACkLRcuTMuWLcuwxfb3LluW9wFVABIABoix1ApAUcHdIEccPrGPdE5fsSKnu9mCBflYfnM83rLoKEifbeENjH3kkXyxj+M4d+wDGHf8fT7JP2lx7jgnwMf+2BfnauL3NAZtzyEcNrFtmGdhQw1MVgOCW43BDaABmBA9ABbAxW9gDdDiOzxY0TjYBkTFcUUPXDe4BfwRl3PFsiZpsHzL9gCySD/ikr8At9gX+YrfxaXSSLMIauQnIDOOaeK3UCVUTUMDTWwb5nmyg7b21J6CW43BDY9VeNyKABQNF9ACgoC6IoDFfr4HedyKUBfpxfEBbsAV+8hDfIBGIA9wY1scw3ccx//FfBc9iBG/FxTGviZ9T2PQ9hzCYZPahHkVMNRANRoQ3GoMbniiAC/EzxJk8ToxtoXHjXhVghtpk4+r1qxZ74MHbRRwK3oQo0ELbsKIQDq8BqLd+F3NgKhdtWsTNCC41RDcACJg6akLFnSu/+J6sKJni/1cW4bIgKeitwzAA/TYR7w4jnSJF0uu3d64YhocG54zgAtIjCXO8PLFuSN9fheP4/9u4MSDSFnYR36Kv+P4Jn4LH8PDh7Ya31ZNbBvmWRhSA5PVgOBWI3ADlPgAbMBQ8W5QhI9nDbgCdoC2ACn2xXIm+zg+jgWOiAt4sQ9YGxXcSB/Y4njyRXoAIdsHedw4jjKF55A8czzpkKfIC2k1+SOMjA8j2m542zW5jZj3Zvdx1l996k9waxgwAGIsWfZqRGX7+h3TK52ybaTDecri9NrXfcy46fRKuw7bhI/h4UNbjW+rOmjdPNRnALcuZrMuBLeGgZsNtZ4NVRgZH0a03fC2s/3Xs/1bL9bLNDUguAluI3vPpinQppxL+BgePrTV+LZqSnswn4KMGqhOA4Kb4Ca4TUADwsj4MKLthredg2F1g6G21bZN0YDgNoFBuymVbT6r65iEj+HhQ1uNbyvbcHVtWNtq26ZoQHAT3PS4TUADwsj4MKLthrddUwYW8ykEqYHqNCC4TWDQVqDVCbQpthU+hocPbTW+rZrSHsynfaIaqE4DgpvgpsdtAhoQRsaHEW03vO0cDKsbDLWttm2KBgS3CQzaTals81ldxyR8DA8f2mp8W9mGq2vD2lbbNkUDgpvgpsdtAhoQRsaHEW03vO2aMrCYTyFIDVSnAcFtAoO2Aq1OoE2xrfAxPHxoq/Ft1ZT2YD7tE9VAdRoQ3AQ3PW5qQA2oATWgBtRAQzQguDWkopy9VDd70bbaVg2oATWgBpqiAcFNcHOWpQbUgBpQA2pADTREA4JbQyqqKTMB8+msVQ2oATWgBtRAdRoQ3AQ3Z1lqQA2oATWgBtRAQzQguDWkopy9VDd70bbaVg2oATWgBpqiAcFNcHOWNQEN+IiL8R9xoe2Gt11TBhbzKQSpgeo0ILhNYNBWoNUJtCm2FT6Ghw9tNb6tmtIezKd9ohqoTgOCW03AbfEee6SVK1eu5/1au3ZtYvskG8D5K1emo5YunWiak8xfU9MSRsaHEW03vO2a2j7Md3WDuLadPdsKbjUBt0022ihttXBhAtaiIa5ZsyaxPX5P4vuk5cvTAUuWTDTNSeSr6WkIH8PDh7Ya31ZNbyfmf/YgwzqffJ0LbjUCt/323TcdesghHajqBW7vXbYsgxdeM/ZHo2D7qlWr8vGkwT48eEAasBbxAtxOX7GiZzqkSzocF+lHOpFupOX3XIMURsaHEW03vO1sc3NtTltoi1nVgOBWI3ADmLZcuDCtWLEig1Y3uAFOfIAuvoseOv5nWZV9AOBmCxbkOCyN7rBoUWd5FHAjbjEd9kcDwMMXsMf5iU+eSHf5748lnxHf7//rPIWP4eFDW41vK9ubsKIG1IDgViNwA5SAIqCL/4vgFlBXbLQAGp42tgFjAVQcRxoRN2CO3wFisY/v4vV1gBvHx37SLf7mfEBf7PdbcBPExgexUW1ne3PQVgNqQHCrGbjRKJctW5ZhqghuRfiKhluEqCJgcRy/Ix5LnXGTA+AG8MU+vgGxAMDua+r4zbHxwTsXaRXTmPX/Rx2AjT892GmTrWe9nVl+oUUNfD8JbjUEN4QJHAFUAVKAWzcwcT1a3CE6Crh1p1P03MX5onHgubtk1ap01Zo1631iv9963NoERnUvi+1NcFEDakBwqym44TUDmgKkuNs0llBpuPwG1oAqfo8CbqQZy5/hnYvfcb7oHIC8gEO24ZkDImO/34Jb3WGnTfmzvTloqwE1ILjVFNxonCyZFkEqrnMDprhhIJY3iTsKuOFhiyXP7nSK5yNdgI648eHcAXl2IHMdSJvgwLLUdxnXNjfX5rSFtphVDQhuNQG3UQTIsmXxeW+jHFuMO0o6nI/4xeP9f67jFHbqCzttqhvb3Fyb0xbaYlY1ILg1ENxmVax1Lneb4MCy1BdC69wGzJsgpQamowHBTXDTizYBDQg79YWdNtWNA+N0BkbtrJ3rrAHBbQKDdp0r2LxNpwNqExxYlvpCqO15Ou1ZO2vnOmtAcBPc9LhNQAPCTn1hp011U+fBxLwJO2pgOhoQ3CYwaCvW6Yi1znZuExxYlvpCaJ3bgHmzH1QD09GA4Ca46XGbgAaEnfrCTpvqxoFxOgOjdtbOddaA4DaBQbvOFWzeptMBtQkOLEt9IdT2PJ32rJ21c501ILgJbnrcJqABYae+sNOmuqnzYGLehB01MB0NCG4TGLQV63TEWmc7twkOLEt9IbTObcC82Q+qgeloQHAT3PS4TUADwk59YadNdePAOJ2BUTtr5zprQHCbwKBd5wo2b9PpgNoEB5alvhBqe55Oe9bO2rnOGhDcBDc9bmpADagBNaAG1EBDNCC4NaSi6kz/5s3ZqRpQA2pADaiB6WhAcBPcnGWpATWgBtSAGlADDdGA4NaQinImM52ZjHbWzmpADagBNVBnDQhugpuzrAlowAv663tBf5vqps6DiXkTdtTAdDQguE1g0Fas0xFrne3cJjiwLPWF0Dq3AfNmP6gGpqMBwU1w0+M2AQ0IO/WFnTbVjQPjdAZG7ayd66wBwW0Cg/akKnjlypVpv333TVsuXJgW77FHOmn5cqGqRvVTVs9tggPLUl8ILdOg+4QNNTAbGhDcagIGp69YkYFt2bJl6ao1a1L8fu+yZcJbTeqorFMUduoLO22qmzINum82Bm3r2XoW3GoCBVstXJhhrdgo16xZkzZbsKADbvw+aunSdMCSJet549i+fPnyfDz71q5dm/fjwTv0kEM66RKP393Hc86yfcU8+X/vTqNNcGBZ6guhtr/e7U+7aJdZ0oDgVgNwW7VqVdph0aIOoPUSIGAF3AFu5/9+SRUIIy6AxvIqv1leBdxYao3lVtLneOLg0eN4zhfevLJ9vfLitkd2ksJOfWGnTXVj23tk29Mm2mTWNCC41QDcAC8gq0x8QBaesogDnOGN45vji5454pDeihUrOvE5Fq9cHA/MAYL8Zl9AHL8j7Yjr9+COsU1wYFnqC6G2xcFtURtpo7ZrQHCrAbgN43HrtbwJnOE9A9wCwkKwsa/4e8dFizqeOPZvstFGGdy643IM6eGJi+P9Lu8MhZ36wk6b6sZ2WN4OtY/2mQUNCG41ALfwcHWDEr+BKvZ3e8UQJyA2LLhxtyrLqNz4UPyQDvuK3jm2hTdvFhrBJMrYJjiwLPWF0Elo1TSEGzXQbA0IbjUANxoR155x3VnAW8Ba8To29rOd+HjpuGaN/4fxuLFMCgRGg+V4rpfjd/c+lk0HXXMX6fj9fx2AsFNf2GlT3djemj3gWn/W3yQ0ILjVBNyoTEDqqQsWZCCLmw0C1GI/S5hAFfuBL7YPA27EAwLjeM4Tx3fvKwIk+/wMtkGb4MCy1BdCbYuD26I20kZt14DgVkMwYSmzCGxFEbKd/cVto/xfdnzZvlHOMYtxhZ36wk6b6mYW25ZlFsTUwPoaENxqCG6KdH2RNsEebYIDy1JfCG1CWzCPzeu/rLNm1ZngJriN7b2zsc81dmGnvrDTprqxzc21OW2hLWZVA4Kb4Ca4TUADbYIDy1JfCJ3VgcpyC2lqYE4DgtsEBm0FNSeoWbWFsFNf2GlT3cxq+7Lc9rFqYE4DgpvgpsdtAhpoExxYlvpCqIPX3OClLbTFrGpAcJvAoD2r4rHccx2nsFNf2GlT3djm5tqcttAWs6oBwU1w0+M2AQ20CQ4sS30hdFYHKsstpKmBOQ0IbhMYtBXUnKBm1RbCTn1hp011M6vty3Lbx6qBOQ0IboKbHrcJaKBNcGBZ6guhDl5zg5e20BazqgHBbQKD9qyKx3LPdZzCTn1hp011Y5uba3PaQlvMqgYEN8FNj5saUANqQA2oATXQEA0Ibg2pqFmdWVhuZ9VqQA2oATWgBuY0ILgJbs6y1IAaUANqQA2ogYZoQHBrSEU525ibbWgLbaEG1IAaUAOzqgHBTXBzlqUG1IAaUANqQA00RAOCW0MqalZnFpbbWbUaUANqQA2ogTkNCG6Cm7MsNaAG1IAaUANqoCEaENwaUlHONuZmG9pCW6gBNaAG1MCsakBwE9ycZakBNaAG1IAaUAMN0YDg1pCKmtWZheV2Vq0G1IAaUANqYE4Dgpvg5ixLDagBNaAG1IAaaIgGBLeGVJSzjbnZhrbQFmpADagBNTCrGhDcBDdnWWpADagBNaAG1EBDNCC4NaSiZnVmYbmdVasBNaAG1IAamNOA4Ca4OctSA2pADagBNaAGGqIBwa0hFeVsY262oS20hRpQA2pADcyqBgQ3wc1ZlhpQA2pADagBNdAQDQhuDamoWZ1ZWG5n1WpADagBNaAG5jQguAluzrLUgBpQA2pADaiBhmhAcGtIRTnbmJttaAttoQbUgBpQA7OqAcFNcHOWpQbUgBpQA2pADTREA4JbQypqVmcWlttZtRpQA2pADaiBOQ0IboKbsyw1oAbUgBpQA2qgIRoQ3BpSUc425mYb2kJbqAE1oAbUwKxqQHAT3JxlqQE1oAbUgBpQAw3RgODWkIqa1ZmF5XZWrQbUgBpQA2pgTgOCm+DmLEsNqAE1oAbUgBpoiAYEt4ZUlLONudmGttAWakANqAE1MKsaENwEN2dZakANqAE1oAbUQEM0ILg1pKJmdWZhuZ1VqwE1oAbUgBqY04DgJrg5y1IDakANqAE1oAYaogHBrSEV5WxjbrahLbSFGlADakANzKoGBDfBzVmWGlADakANqAE10BANCG4NqahZnVlYbmfVakANqAE1oAbmNCC4CW7OstSAGlADakANqIGGaEBwa0hFOduYm21oC22hBtSAGlADs6oBwU1wc5alBtSAGlADakANNEQDgltDKmpWZxaW21m1GlADakANqIE5DQhugpuzLDWgBtSAGlADaqAhGhDcGlJRzjbmZhvaQluoATWgBtTArGpAcBPcnGWpATWgBtSAGlADDdGA4NaQiprVmYXldlatBtSAGlADamBOA4Kb4OYsSw2oATWgBtSAGmiIBgS3hlSUs4252Ya20BZqQA2oATUwqxoQ3AQ3Z1lqQA2oATWgBtRAQzQguDWkomZ1ZmG5nVWrATWgBtSAGpjTgOAmuDnLUgNqQA2oATWgBhqiAcGtIRXlbGNutqEttIUaUANqQA3MqgYEN8HNWZYaUANqQA2oATXQEA0Ibg2pqFmdWVhuZ9VqQA2oATWgBuY0ILgJbs6y1IAaUANqQA2ogYZoQHBrSEU525ibbWgLbaEG1IAaUAOzqgHBTXBzlqUG1IAaUANqQA00RAOCW0MqalZnFpbbWbUaUANqQA2ogTkNCG6Cm7MsNaAG1IAaUANqoCEaENwaUlHONuZmG9pCW6gBNaAG1MCsakBwE9ycZakBNaAG1IAaUAMN0YDg1pCKmtWZheV2Vq0G1IAaUANqYE4Dgpvg5ixLDagBNaAG1IAaaIgGBLeGVJSzjbnZhrbQFmpADagBNTCrGhDcBDdnWWpADagBNaAG1EBDNCC4VVxRyaAFtIAW0AJaQAtMxAKz6mUrlltwqxjc/v7v/z75GWyDZz3rWdqpAq1o18Ha69U+n//856vHCvTYy9bDbHvpS1+a+AwTd9bjtF27RYCZ1f8Ft4rBbSJTjBlIhM7WMHkLaNfxbPov//Iv4x3oUZVY4Iwzzkj//u//XknabUu07W1+VmGtWG7BTXCrRb/V9s5mvoysXcezvOA2nt2qOkpwG96ybW/zRYCZ1f8FN8Ft+B6hwpht72wqNF1p0tq11Dx9dwpufU0zLzsEt+HN3vY2P6uwViy34FYxuOHe/6//+q906KGHptNPP3341jdjMcs6m+9+97t5mQRb8vnv//7vRliHfN50003pgQcemLf8ltn1F7/4xSPs+bOf/Szx2dDwta99Lf3t3/7thiYzb8cPArd77703XXPNNdl+3/rWt+Ytn7Ny4jJw+9///d903XXXrddH/PrXv17PND/5yU/Sy172svTzn/88XXTRRflaOSLcddddae3atemhhwJCIHMAACAASURBVB5aL36Tf5S1+d/+9rfZTjfffPMjivi9730v7xulv/r4xz+e3vKWt+Q+ea+99koXXnhhTvfiiy9OO++8c3rb296WTjzxxPTOd77zEecbd0MRYGb1f8GtYnCjw7nhhhvS1Vdfnb/HFWvbj+vX2dx3331pyZIl6eCDD07Ykk4AIADm6h6+8pWv5LzOJ2j2syu2+9SnPpUe9ahHpWXLlnUGLjra5cuXb7BpAbcddthhg9OZrwTKwA3gPfDAA9MnPvGJrMljjjkmffOb35yvrM7EecvA7cc//nF6znOekz784Q/n+iBuL3AjDnGZSH/2s5/NdvvCF76QgY5+pi2hrM1feuml6Q//8A/T3nvvvd6E8o477sh2+Ou//ut02223DW2KE044IUMwsHfFFVekH/7wh/nYF7/4xbl/4Qdtg32TCrMKa8VyC24Vg1uI9fOf/3ye2fH7k5/8ZPrP//zPdPzxx6fuAQKPEttoED/96U/j8NZ/9+tsAtzOOeecjg1WrlyZ9tlnn47nDUhg8HzPe96Tbrnllk48OhFsyQcv0o9+9KN01llndfbTaeMtufvuu9NnPvOZDNbEJf177rknnXLKKfnY4iAAjEX9BJAxgwfMAR72MTDQ+R1wwAHpmc98ZjryyCM70P6lL30pxyFeHN/JUAX/9LMrpwLcnv3sZ6dNN900ewbZVgQ3OmPsTl4/+tGPJmbrhMsvvzx9/etfTx/72MfyPrwWlJ94X/ziF3OcALeom3/7t3/L2/lz9tlnp2984xs5/u23357TjbRiQO1Enqd/KEuvgHdn3333zYDQaz924Vg+6IBAh3vJJZckbEA5KTPlDC0Q55e//GWnPyhCIHEjvS9/+cu9TjkT2waB25577pmhrGiMon5p3wFueJv4TX/AJPBpT3tatjHbsff73//+/PurX/1qTo5+eMWKFQnooY1HOyieq07/l7V5yvC85z0vbbHFFlmXkW+0iUfyRS96UceO6De0h64jAL/ve9/78hj17ne/uwNu9Cdo/fzzz09PfvKT03777Ze9m/SZnDcC8Uj3zDPPzJvop2MsDO81fS776Wvoe4p9cBFgZvV/wW1K4PYP//APGdhQKo0GtzKdBMunzH4YEJjBv+Y1r8lipqHQ0QAVsxD6dTa9wI2OE9vgyfzc5z6Xbcm2O++8Mz3xiU/MHQ9LlHRCABt2BsLWrFmTXvCCF3TM+cY3vjFDxK233pq22267dMQRR+R922+/fWIgAK6BbB5DwCBAXVGP999/f1q1alXaaaedcnwAjfxwLvLDeanPbo8bnq1/+qd/yh3/t7/97QxNDNhVhn525Zx0oOSdTvOwww7L5Qpww+5vetOb0oc+9KGcvfPOOy+XCzscddRRadttt82QTCe98cYbJ5ZMADgGQewNsP3pn/5pOvbYY3O62O2kk07KaW2++ebZpvyg3l772td2ZuQMHgD1fAcGll4BIGdQ6hUA0j322CPvYgDC48jAQnk4JpaRqPs///M/z95jIgMGO+64Y7bnb37zm7T11lvn44i3zTbbZHsC+fvvv38eFHudu+3bxgE3dI2GCa973evSJptskvsGoC2W8Yset9/97nfp5JNPzppk2ZA6ok1fe+216SlPeUr26DXBzmVtHoCiD2TlgoluhF133TWddtppHXBj/MFG9IG00d122y1DGDZCnzgYAF9syvnoL0g32i56xs4EQJi+lT6R/i88+uzHvvTNgBl9IZNI2gPQyGoAx3aHWYW1YrkFt3kAN8QZMxgaBe7pH/zgB3mGgueCsG7dunTIIYd0XPrd4m3b736dTS9wo+x0DFxjxGDG9RQEoILrLfC+ASXMBouhDNxe8pKX5E6K+G9+85vzjJD/gUOei8Ty2OLFi3OnQ6fFDJV6JAA/zEAJdHQvf/nLc6fWDW7MdLmeJgKAt3r16vhZyXc/u3IybARQAVyAKuUKcGPgwhvHPgLfu+yyS2I74MagSAB6n/70p2fvIZ06Ew88SYAb0IG+CRdccEEGbP5fuHBhhmj+Z1AkHiDM+d/61rd2ADofOE9/+oEb3gYmB70C0Fb0GKJFgJbBjInar371q3wYQAbUhUcOL9wLX/jCXH5swDITkMexAHWET3/609m+YdPYPgvfg8Btyy23zLai3vCA4zEHRugjCHh1AA7qrx+4Fe3IhHn33XfPOkajz3jGMzJAF+PU9f+yNh/gxjWBwBiXnNx44425bbMtPG5MMpl0RUCLgBz9IX0lbZ3rAo8++uihwY0+hEkxfUa/wHMn8TjTNpjs9NJ6EWBm9X/BbZ7ALTptBIxYaTyveMUrOp0521liO/fcc/tpvFXb+3U2vcDtf/7nfzJMAUYMluFexyDM0N7+9rdnkGL2XAxl4AZsRYdy+OGHd0AsBln2Mdged9xxnetoGEwIgNsHP/jB/D/xIq1ucNtqq63WW/6mzHisqgz97Mo5A9z4H88iSxvcRMOMmMEKL2JctM3F+MAFnkzADdggMBBSLjxCUVdAWCyV5kgpZY8a4Ecg3agzoOa5z33uejalnuY7DAI3JgndAdCN5TX2MYHguivKSD1gHwKaQiN4JgmcK5Zf0RQfBiS0Fh5P4gF1xOs1mOWEWvxnELh1L5XSR3BxfOiMmxPQ3SBwA/TwRNH3LliwIHvNaQt4mPGGNiGUtfkAN/QLgNGO8YLRF2CjADf6wFjKpMz0U6985SvzpRCkj/eMENe4oe1BHjc8afQVxVUG+hcur8DmtAO89zg1GB+B5V5hVmGtWG7BbZ7ALdb8cRUjZu52wltx2WWXZa3SOQMEXAs0C6FfZxMw0H2NG7YBFlhmC/ihM4rfLDtzQ0Mx0AHj9SJwLMtyLG8VYYt9vcCNeqKji3MV0x0W3ACU8LRyPB0dM9gqQz+7cs4iuOFhwHvJJAJww7OGrehsCegTzyNLGsOCG2kFnLAc8oY3vCGnVQQ39I33NDx7OUIN/vQDNwAWAA0vbzGrTCKKOn3961+f4w0CN6AZ23fD4KmnnppYzo/AdVZLly59RLzY3+bvUcEtwATvLwEvDsv4ZeBGGwcW8ELRP1CfTL7aCG7YhMs6/uZv/iZ7IhlviuCGR/0d73hHR1L85s5Q4IF+C/tgY/pY+phhwA1gw744KSKw3Ep7ipsa8IoKbt/Pdi6CWvf/gts8gRtuZzxCf/d3f9fxql155ZXpVa96VZ5x46rGe9TdmYfg2/bdDzAC3OKuUmaIwBkdMIELivEUYUuu2wC6uAYNEADM6HC4uJXZI7PwmGXiyeC6tmHBDQABMoBroJBBlG9CP3DjGOoXEGJQ4AYVysGAzBIYyw9V128/u5LvIrjxm/w9+tGPzuUiX+TzoIMOynpkCZXlYcKw4MZASedPnbFsGNBaBDfOg4cUTx+D8wc+8IE8yOYTzeOffuBGlhh40OBHPvKR9fKMp5AlUcrxrne9K3ttAb1B4IZW0TBeB47953/+5wzIbMcLj/3wbHCdUID0PJpmXk49CNzQFP0l8fjQ9qgP+gB+ozEuSekGNzw7eJLROpc5MInAS8r1mFyL2WZwQ1/YjbZHKIIboMBYhE2xB/0W2/CQcXkFy6jYCA/wsODGObhWljuyqRPa2He+8518Hvpp+u+nPvWpgtsQTCK4DWGkbtod5Xf0csz4wkXMtVG48K+66qp0/fXXR5Q8iOPpYEmEQQ4AmZXQDzAY2MMm2IVP91IR1weynZlxuPCxG7O5OIZrBgkMfGxjyY90qRPS43fYm/8BLQL7inUReWFJjI6PwNIXN0ZE/GJa1DsDCNBIoL4jT3lDxX/62ZXTUnZsFIHrVlgqCp1iS5Y8yW/xWVfYIDxpgDVlJERdMRunvAyEDIwcHzNq4pFmsQ6L58F2dQhl4Eb+QkeULcrPdrTAtmIZ0QkajWXnbr1xHPaiP+DY4mUUHMs2PsU76+pgo2nmgYEeG/QKaDBsFN+0dz60XbbRPtEtcam74nPMaJNcW0y9hF7ROx+0TB1Qr1F/vfJQp22D2nzolfLg8Y/JAO2Q9oeNCPQDYc9iew1NYh+u/cVmpMWx7COg/+jz0H6x/Uea2JTAcWyjHvifekPrxbExR/z9n1HG37bGFdymBG5F4QFuxc65uG9W/y/rbGbVJpMot3Ydz4qDwG28VD1qXAuUgdu4abb1uLa3+bbC2CjlEtzmAdxYOpvl2XOvDrPtnU2vMk9jm3Ydz8qC23h2q+oowW14y7a9zY8COG2NK7jNA7gN3wRnJ2bbO5v5qkntOp7lBbfx7FbVUYLb8JZte5tvK4yNUi7BTXAbvkeoMGbbO5sKTVeatHYtNU/fnYJbX9PMyw7BbXizt73NjwI4bY0ruAluw/cIFcZse2dToelKk9aupebpu1Nw62uaedkhuA1v9ra3+bbC2CjlEtwEt+F7hApjtr2zqdB0pUlr11Lz9N0puPU1zbzsENyGN3vb2/wogNPWuIJbxeDGs5eKjwIYvvlNPybP7Sk++X2aOWh7ZzNNWxbPpV2L1hj+f8FteFtNI6bgNryV297m2wpjo5RLcKsY3HgWzWabbZafIRRNj4dA8jiQeF4W23kGFs8aYjvvNIzf8Vwy7kKN5+3wDC22c3w8Q4dn5vB/8W5Vnq3DNj7xnDEeCEqceGYR/xOPc/KkfF6xRXwCzzXrPj7KMOnvtnc2k7bXsOlp12EttX48wW19e8z3L8Ft+Bpoe5sfBXDaGldwqxjcaG48KZon9QNjPIWal8fTES1atCg/eJA4vECap+yznSfx85BE3q7Ak7sJPKAw3t3G2wF4TRZPmX/pS1+a9tlnn/xCdY7l6eC8U4+HGPIkal5TwlOplyxZkh8qy0NqeaI9T+4nPu9XBCR51RbbeWp7vCibfPOEbN4QwLsV44GJOUMT/tP2zmbC5ho6Oe06tKnWiyi4rWeOef9BX0UfaBhsgba3+bbC2CjlEtymAG48t40X+VIxvL8xwnXXXZff/8iTqnn1CE+tj8ATu8vADfAi8GTwbbbZJt1yyy3596tf/erES74BP94tGYGBiNeXAG6LFy/O755kH68yOe2003I03kEXL/hevXp1Iq3w+PEORgAx3i4Q6U7qu+2dzaTsNGo62nVUi/1ffMFtPLtVdZTgNrxl297mRwGctsYV3KYAbu973/vyu/LwavGetwgsdW6xxRb5tUO77rprfn1I7BsEbqRJwAu2ww47dF5BxIu8eafkypUr01/+5V/m98jRkHkXIp0f4Lb33ntnrxzH473jnYuEIrh98IMfzO9HzDtSyku9nKf46pPYN4nvtnc2k7DROGlo13GslvJ7FMc70qOqsIDgNrxV297m2wpjo5RLcJsCuAFKn/nMZ7I3i5dGR7j11lvT9ttvn5cq8bjxbscIXLPG0invLyR88YtfXG+pdBC4XXzxxRnQIr34HhbceIEwy6wROG7PPffseOBi+6S+297ZTMpOo6ajXUe12P/F1+M2nt2qOkpwG96ybW/zowBOW+MKbhWDG56vF77whdnDxQt4Fy5cmJdMud6N68lYRmU5Erg7+eSTc+vkhcfcFPDWt7417+c4gK94jdsgcMObt/XWW3dgkKVTRFwGblzHBvAReMn6lltumfPBy8dZtsWTV1Voe2dTld0GpatdB1mo937Brbdd5mur4Da85dve5tsKY6OUS3CrGNxOP/309VocNw7QsPicffbZnX0sjR5zzDF5+8c//vF8cwFet3/8x39Mb3zjG9Oll16abxTgAK43u/DCC/OxANa73vWuzt2knI/r3ggAX5yLmyIIePW4UQIYI5DWF77whc4+znX00Ufn38DeQQcdlNOo+sLgtnc22aDz8Ee7jmd0wW08u1V1lOA2vGXb3uZHAZy2xhXcKga34ZvbbMdse2czX7WrXcezvOA2nt2qOkpwG96ybW/zbYWxUcoluAluw/cIFcZse2dToelKk9aupebpu1Nw62uaedkhuA1v9ra3+VEAp61xBbeKwY0BwM9gG/CYFO002E6j2ki7jmdTHqUzqq2NP56th7Ebz6sESIaJO+tx2t7m2wpjo5RLcKsY3IafJ812zLbPEuerdrXreJZn8DfUxwJ63Iavi7a3+VEAp61xBTfBbfgeocKYbe9sKjRdadLatdQ8fXcKbn1NMy87BLfhzd72Nt9WGBulXIKb4DZ8j1BhzLZ3NhWarjRp7Vpqnr47Bbe+ppmXHb3A7ZuXXppm6TOs4dve5kcBnLbGFdwEt2H7g0rjtb2zqdR4JYlXadebbropv6Gj5PSN3VUFuPHoHp7b2KRw8803d541ySOBeJ3efATB7dKhzV5lmx86ExVGbCuMjVIuwa1icGMA4F2g9957b36l1dKlSzsX2B511FH5WWsVarwxSffrbHg48ac+9an0jne8I/E6L54rd/fdd+dy8b5WXiGGjfkAEgRey8Wz8N72trfl7TwEmXTOP//8hP2POOKIdMghhyQeUkzgrRY8C480eD/rT37yk7z9a1/7WjrggAPy9pe85CXpG9/4Rk77hBNOyNuIT5723XffdMcdd+Rj6vann13JJw+B5hl+b3nLW3J5eJ/uKA9ZJi4PbW5joG4nHdDTpptuOnayvN6OV9Hx4G7yxwctX3/99WOnOehA8sw5eO4j53vTm9406JBK9gtuglsIaxTAaWtcwa1icENs3/rWtzI48DDd448/PvSXH4YL0BlSvmOslx0ALhofAWBbvHhx+uxnP5t/8zYHoKs78BBiBpiibR966KH0gx/8IMMKYPfKV74ywx3H8lDiiAugrVixIsd72cteli6//PKcPK8c6wUpPNgYeCT9OoYycANEef/sT3/605x1Hvj8ne98J/9/++2357dm8AaPKBsPdP71r3+dX9GGDbvBjYdLEz/SC3uw7cc//nHn/bixvc7fg8CN8lAubEaIsrMttPSrX/0qTw6w5Z133pm6wQ1tE5/P/fff3zFH2D4mFuygD9lrr71yGsQnbT6XXHJJetWrXtWxeTHNiEedUXfEZxtxqFP+51wRisdyDIF6Jh6hDNwiz3Ec8W+77bZ8bBwf24iDRrAhIc7Bd78guAluoY22wtgo5RLcpgBuCI53jm6zzTa5kwoB+j1ngTLAiFgMPrvuumtavXp13tQP3HbbbbcO7MWx3d9AGJ687nDooYdmr8a6deuyJ423TDDI8YoxvHTdAQ/KjTfe2L25Nr/L7PrmN785v0WjO7O8MQOvIoMlsAAIY4N3v/vd+fdxxx2X37tbBDfqhLgcw9s38GwSgOwDDzwwL7d97GMf6z5VbX+XgRtlfN3rXpfLircVDy3eSuyEFx2QJ/B2E15xxzbs8+Uvf7njcWOywLuImcgde+yxaf/9989wxfuL0eYpp5ySPvCBD+RteLuoKyCN+OQNT/Cf/dmf5f7k9a9/fTr33HPzOQ8++OBcT+Rn4403Tpdddlm64oor0lOe8pRcJ+SF9sEkknI873nPy3V5zz335OPYhgeWx6EQeGMLr74j9AM38kVZOBa9AZnUO+2TbdR/TIbw3pE2S8a85g87cr4TTzwx7bTTTn1XIEin++0ts3R9G2UdNpS1+WHTqHO8UQCnrXEFtymB23nnnZd4kbyhtwXKOhtm5oATg8OSJUs6CbD0yWDCh2cXrV27Nu974hOfmAdLtvOe2E9+8pPZg4YHgG2kw3tgu2f4/H7605+errvuupwOoLjddtulJzzhCWnRokWPiM/599hjj+zB6GSqZv+U2ZWBs5fHslgEBuE999wze5QAN7w7EQLc8NSg7S996Ut5F3bcb7/9MqxQX6eeemoc0phvdNIr4AUDxrq1E3HRWCyHAm7bbrtt4nV2hKLH7fDDD08AcASWP5kkMJnA61v0wF1zzTXpNa95TZ4gvOAFL8ieZ5ZHd9xxx3w4aZ111lk5T4BYeNg222yzvB/gIR8E6ortUe/ANBBXDD//+c/T9ttvnz3Rg8CNsu2yyy75MoJIAxvxXuWwETbhNx5vwC2gHpDdYostOpcs8D7mftfQCW6CW+irrTA2SrkEtymBGx0rHb6htwXKACOWcK6++urE8iXXrHF9VjF85CMfyR4ftj3mMY/pXO+GZwMY4xq0WB7CowSM4AWIwCDD9XMMLJE2gzceAYAEAHzPe94T0fOgxAB70UUXdbbV8Z8yu7LsDHz1Cj/60Y+yh+PMM89MwAIDNOD2/ve/vxM9wA3b7rzzznmgj514foADlpqx02tf+9pOnUScOn/3AzeW/fAMdQdgCUDCJptsskneDbjts88+nahFcANs8YZFYGKHl4xlVrS2++67d278wI7ADsv11CftgWsTuR6TQFpf+cpXsr4BNDyAt9xyS1qwYEHeT77QewT6IYCMABChcQITFSARb9nTnva0xDV1g8CNc+FBYxk2Ajbaaqut4mfWDnD3H//xH7l9hYauvfbaDJQsMxPwIjIZ6hUEN8EtdDEK4LQ1ruA2JXDDi/PsZz87MZs1PNICZYBRjM0gxvVpMZuPfQyCDA4EBqYf/vCH+X+gAg8Dg1IxAH+AC4GBkGUpACPS5bjHPe5xnd+kx9JTBAY0gDAgL7bX7bvMrnh5gLHugNeDJUDggCW4QeCGbdE2AzMBm7BceuWVV+bfeGCAZLwuTQll4MbSIZOACLTp5z73uRnaLr744o5OysCNZcRzzjknkshLo3jcCNgv6gC4YdKHh5jLLdAskAa04SlDh1zPCThy3F/91V9l7xze1Lg+cxhw43gADA8c4Lb11lsPBW6UHS9f8To2/gf8wkZcm4o+wuMmuI33GJOOWAb8U9bmBxzaiN1thbFRyiW4TQHcuMORWSXXpzA7jsCgiEfI0P/mBC7+ZjABrhgA8A7wm2uBmIUTgC1AI5Z/jjnmmPTOd74zDxwf/ehH80yei6G5uzcC1yGFB430WIoqwh3/s4yDB4LAIMzgQ+D6Nzx/3Ila91DWiX/ve9/LS73hfQFOubaKgZU7chl4WaIeBG7YAA8bHiPCpz/96QxuwC9Lf3iR8FqynN2U0A/c0COA8/nPfz4XhWVgJg3c5EE5Aa5HPepReV8ZuOFhY6kTTyZ9AHrirmg0zYX+v/jFLxKvecI7DADjseRaN8AQrx4e0c997nM5PtBFIC3AjUsBqHe80IRhwI1Bg2OpMzx7j3/84/uCG7o4+eSTE95YYJFrP8NewCJthslVgCmXKtDesA8ebcFNcMvCHPPPKIDT1riCW8XgRgdahDPggm18zj777DGl277DsEevwMCAtyZsxgXgEbijM7aHdyH2cTE3+/CkRQAoIj4DTwQeNRLb+QawGQyB7diOV4OBkcA3cFis10irbt/kvywAInhuiMdF4vEolLAfoIANAWcGdH5HwMMWcEA9MUEhHWwTdysyiDNoM7g3wV5RtgCR+F38Luoi2jB2oOxoJzQHiKHRCDzHLeCWbSz9cwwfQIxQTPuCCy7I2wA26giIph4ITFa6Nc+1oExg2Ed9sPSIFw8PWMASxx555JH5BgL+B+poC8AYE0nyQnugLskv1zjimSXgiQMsicv+mDjFo0I4tjiZoc7ZtmzZsnw8f7i0IDSEHvD4cjyBdo5XsVfgXOS1GLw5oWiNuf+xeZtDW2FslHIJbhWDW5sb0CTL1vbOZpK2GiUt7TqKtebiloHbXKzp/QeI4bnCM0ydAkU8zqUY/vVf/zV7PvFsEbgxhOe+tSEIbl7jFjoeBXDaGldwE9yiPczrt4BRjfm163h2rRu4DVMKvJzAGnXOJRnc0BDXbA5zfJ3jCG6CW+izrTA2SrkEt4rBjQHAz2AbcP2Tdhpsp1FtpF3HsynXsY1qa+OPZ+th7Mb1fgBpMe6sLZUWy172f9vb/CiA09a4glvF4BazBL/LLaBnqNw+4+7VruNZjoHRUB8L6HHT4xZqbCuMjVIuwU1wi/Ywr98CRjXm167j2VVwG89uVR0luAluoa1RAKetcQU3wS3aw7x+CxjVmF+7jmdXwW08u1V1VC9wq+pcTU+37W2+rTA2SrkEN8GtFv1U2zub+TLyJO3KYxt47AVQc8MNN6z3qIv5Kl9V560K3LhZgLtD487PqvI/qXS54YH88s3AwsOAucN12kFwG97ik2zzw591ejFHAZy2xhXcKgY3GhHPP+J5RcVnOE1P5s04U7/OJp69xmuAeEAo8fjw3CueF8b/vEeUxx4U3+/IM6h4gC5PgCfw7DWeaUV80uIBswyiPBeL/3kSPe8d5cG9xTvxeOgv7238i7/4i44heS0PT74nrRe96EX5ifA8vJbf8XnmM5+Z0yR9nqPFi8BjXzz7i/OSDud9wxve0El/kv9wzn6Bp/Lz7lHi8KYDHshbFj7xiU9kWxGHMvHct7aGqsCNB9yiyeLDnoe1IZo+4YQTOg/Ypd540C0P/eXZalUEnutHO+ObN2nwMOb77ruvilOVpim4lZpnvZ1lbX69iA390VYYG6VcglvF4BZtQ3ALS/T+HtTZ8HR/XuMTARDjgaMEXqXDuxG/+93vxu7sJQCWAtwAqIgPdOy2226Jl1zjPeB4Bj4eurv55ptnb1IkBBDynkdAjICnhCfe8x5HwoknnphhL//4/R8eoso7KnmgKem+/e1v7/lqqQAl3urA67MizWJaG/p/mV15MC5vjSBgkzvvvDP/j03Wrl2bH3jKA1gJPMkfuOXBvAAfAMK7NyPggeMBqRE/tjf1uwzcKCN1jB0oczwUl7ICV2xjX3E7D+Nds2ZNfi1YgBv1jt15EG9oIY7ntVa8KiwCExXeGsKr2kiLZ7jxPtKvfvWrGeSuuOKKHLVYd5EPdM2DkEmPbRxPoP44T0xUisdGHCZDnIs4ZeBGOUg74pI+5WMbnzgHOiJtPmynvOzjfzTXD0AFt1xlQ/0pa/NDJVDzSKMATlvjCm6CWy2a6aDOphvcipnmtUA8viGezE9j3X///TvvXCzG5f/Yf+ONN3bvyq9l6kYc2QAADftJREFU4r2yBEAGaOPVQryfkoC3gXczsnzEwMQT7RlUioFXFPHuSgYk4vDQVAZ7BrfiYBzH8Pou3qfK96RDmV3x8uH1C2Dj3AyceFgAF14RxquWgALA4cUvfnF6+ctfnp9+D4TwmicCT/Dn1WJ45LBXvLN00mWZZnr9wI0JA5MEvOfYhwfhxlsJePUVcIUegGJeH4Y9eUUVbzFgmZn4AW5M5ng/Lm9XwJ58mJxwPOcnDeCPNHhrAvYlLeqM17XxTt6vf/3r2faHHnpoNs/y5csT/5900kn5Xbu8cowJAe8O5XzUE1omDd5+gMeXfPEaNzzBvL2ANz/gSUavaJKJCt/9wA3gIp3Id7z2Cn1xPvKKd5b2QH7whJPPww47LHvLyRfHYlfacq/AfuDOMNgCZW1+8NH1j9FWGBulXIKb4FaLljqos+kFbszuGeCAtuJ7SBkQgC32h8eNQgJPxAcu8JR1BwYNBjWWsfA+MDjj4eC4ADeOwVuwYMGC9NjHPjYdeOCB6y3Rsh+YA34IDGpAHK8RinNznRABjwfxgCEGuCpCmV1vvvnm/NJyAIB3bjKw0nnEu0nJDzZhEMfDxAAbkELeA9yK+QYwiNf0QF31CgFu8domPEabbrppjsoSPO9kJTAp4CG4TCbQIBoiYM8iuLFUTUBvQFwczwQB8GFZHtgHjNAznmI8xLzcnSV88gPU8Eo2wjbbbJM9yxzPEjz1RB7Qb7xW6xWveEWnjvA6857UoneQvLAEy2UKw4Ab70ZlIhMBHaFpvI4EtIOGKBvgttNOO+XtTGqe85zndN4HDMwVX5kV6fEtuBWtUf5/WZsvP7IZe0cBnLbGFdwEt1q01kGdTS9wY7DBK8AMn8EITw/eLjxDscRTBLeIz/ISD/RcvXp1p+x4LgARvCYEvG4MXqRTBDcGJQZJllB5ryIDEl6KCCx5sUwaXifS2WuvvXI+icNriVh2ZXDkPaHkn2VGXmDPtUqTDoPsytIv5QBmgTLeRwp4kj8C3p4iaPQCN+LyDl4GVwCjDddyDgI3BgQCkI+nCF1QryzPcyygDpQD+YAdkEIoXuNWBGEAbPfdd+94jYnLOz6BGfSHxw5g23bbbfM5r7/++rTzzjvnNI866qjOxAWwQ8vkC7ADvAA3juN6TQJpxauwgCu8fMAVZQDWqEcmQ3jgBoEbgLh48eL13jHKuTlfaIhvPI28dB5w432qBICUMsQlAngo+2lHcMsmG+rPoDY/VCI1jtRWGBulXIKb4FaLJjqos+kFbsWMAxsMcnjSWGJi8MQbtvHGG+clq6JHgeOOPvroxIBH4I45Bi+WlyKcd955nXTwfGy00UYZbLhWCC8BAx0BzwseqrhLkDQBO4CHwMCH9yGuYbrkkksypMX+HCml/I5JyjDpMMiucT68gEAXHhiANcp32223ZTilfEXQKHrcjj322LzsxVIWA3S/wTfO1YTvQeAWL0PH44aXC+hhCT3AP8qI/Z7xjGd06h/46gXCHA/gh5cK2GF5EZACxKgbrmnbbrvtsjeZ11ntuuuuGbRZig9vGmkAZkcccUQ6/fTTczaGATeWy9E5sEg9MrEZBtxYYsVTSD4jAG6AH9onEAdN0YYFt7BSdd/DtvnqclBtyqMATlvjCm6CW7WtbMjUB3U23eAGOFx00UU5dQZPlqm4RqgYikulLAvG3ZyAGss7F154YY7OchUekvAQFNPg/6LHjY6Au1vxlBGOO+64fEcmxzL44l0pevLYznVPJ598co4PTOKJwduABwKAu+eee/L1SizvTjr0syseHjyFfBOwAeDKIz8AC2zHgAuERj77gRuwgKeTcvD/LIAbHkpglqVhoIQAtB900EH5fzTG3eRMGA4++OB8R3PojmvGgJuiPTmIiUfAO/ZkqRMvGTfVsOzKNzcT4H3iRhwgkf9Di6TBsjzeZ+odiCYMA25AIfWO95e2wk06ZeBGezz++OOzR5pldkCPwPG0Szyzhx9+eC4/7ZL2SfkFt2ymSv/0a/OVnnSKibcVxkYpl+A2JXDDk0FnZ+htgUGdDY/b4MLsCEASF2vjGeETyy2xn2+ALq69YUkHAIn4eDEIDCYMMrGd7yJ4EQfIYhknAgNlxGfgjMeQMLASL2Ao4jNIx/PPimmTt0iHAa+KUGZXrreK8xfzVbQJy9AR0DDLzARsS9kJLAMCsEAM8dugc+zSK1C3LI1ywwZl5saCYgDWOPa9731vZ3mU/cTDPgAS3k2gr2hP4gDxXFPJ8UAc9RCBu3/xrMWd0WznXEWt0Sbw/qJXAvXDsj2/0RpQTgCswrNH3dGuAEwmKNxIwPWWLNvzG3AkHe5MZWCJ57jheQ7tMzkhTfLNscQlcH0e21iWjXOjObYTyO+ZZ57ZKSfLv/20w7m8OSGbbeCfsjY/8OAGRBgFcNoaV3CbErg1oD3Maxbb3tnMl3G163iWBzh6hQA3BoRpByYbRx55ZIYh8gdcFb3EQB03IQB8bAeY8PYW40w7z5M6n+A2vCXb3ubbCmOjlEtwE9yG7xEqjNn2zqZC05UmrV1LzdN3Zxm4cTE+nrO6BZa2ec4edc6lADzKJbxvdcvrqPkR3Ia3WNvb/CiA09a4glvF4EYj8jPYBryZQDsNttOoNnrWs56lXcdog9pt8locVbvF+NzswKe4zf9711Hb+9K2wtgo5RLcKga34edJxtQCWkALaAEtoAXKLDAK4LQ1ruAmuJW1EfdpAS2gBbSAFqiNBdoKY6OUS3AT3GrTIM2IFtACWkALaIEyC4wCOG2NK7gJbmVtxH1aQAtoAS2gBWpjgbbC2CjlEtwqBrdRKsO438/PitIO2kENqAE1oAbUQG8NCG6Cm7CkBtSAGlADakANNEQDgltDKsqZR++Zh3bRLmpADagBNTBLGhDcBDdnWWpADagBNaAG1EBDNNA6cDv+y79MO59/b3r9qrvT5d+8VSE2RIizNFuyrHoH1IAaUANqAEaBVWAW2GVYTbQG3N54yd1p87PuT1uc+0BaevW6tNfn1qU/OiWlxRf8Nn3k6tuGNsiwhjOejU4NqAE1oAbUgBoYVQMwCWwCo8AqMAvsAsPAMoPSawW4nXbNz9KTz3gonfHtdenBBx/sfG6688F06JXrsoEGGcL9Nj41oAbUgBpQA2qgag0AbbAJjFJkFhgGloFpyvLQCnDb+8LfpIMuWx/awhgYBqp12dTGWNYQ3Kc+1IAaUANqoGoNwCIwSTe0BbPAMjBNWT4aD25fu+mH6XGnPpyu/fkD65FrGIFvXJGsI5cZwn02WDWgBtSAGlADaqBKDcAiMEmRUYr/wzJ/curDCbbpl4/Gg9uHr/pF2vys9d2NRSPwP+vHXPzXzwhut6GqATWgBtSAGlADVWsAFoFJujml+BumgW365aXx4EbBtjhnXTr5hv6G4KK/Ue7Y6Gcst9uo1YAaUANqQA2ogXE1AIvAJEVQK/4Py2xx9rq+0MZ5WwFuh62+K+3ymft7GoKL/bhTY1wje5wNVA2oATWgBtSAGpiUBmCS7pspA95gmbesvquUWVoBbjfc/IP0hNMeyvAWnjfWibnIjzs0hrm9dlIVYjo2bjWgBtSAGlADaqCfBmAS2ARGievzYRegDZaBafody/ZWgBsFoaBQKi5G1oe5uI87MwbdVltmHPfZ8NSAGlADakANqIFJawA2gVG4uRJm4ZIvVg8HQRv5aA24FY3KRX1ld2QU4/q/DVINqAE1oAbUgBqYDw3AKmU3IvTKUyvBrVdB3WajVANqQA2oATWgBpquAcHNd3mWrqU3XeDm305aDagBNaAG2qQBwU1wE9zUgBpQA2pADaiBhmigluD2/064PZV92kTOlsWZoBpQA2pADagBNVCmgTImYt+TnvSkiX7+YNQEyUQ806T7m31lhXOf4lcDakANqAE1oAbapIFBXDQqZw2KL7g1xP3aJpFbFjttNaAG1IAaaIsGGg9urO/60QZqQA2oATWgBtTALGig8eBGAfxoAzWgBtSAGlADamBWNNB96Vj8pvyDlj5H3T/xpdJRM2D8yV60qD21pxpQA2pADaiB6WkAOAtQ6/4W3CZ8Z4bCnp6wtbW2VgNqQA2ogTZqoBHgRib7fdpYKZbJzkYNqAE1oAbUgBropYF+PBTbex2zIdtGXirdkJN5rKJXA2pADagBNaAG1MD4GhDcXH6d+IWTNsjxG6S203ZqQA2oATVQpgHBTXAT3NSAGlADakANqIGGaEBwa0hFldG3+5yd1UkDGy16RXrsQWenRy+9ptWfP37bmvT4l73Twc4+VA2ogalqQHBTcFMVXJ0Aw7xUA7x/fNjqvjcvxcW6bfp+4vNfbRuyH1UDamBqGhDcFNvUxCYoVQNKdbNrm6BsmLI87jUftQ3Zj6oBNTA1DQhuim1qYqsbYJifakByGNhpUxzBrRod2T61qxrorQHBTXAT3NTARDUwDpQ9+sTb0+M/fEfPJdZHf7D/vlHO9ZgP3p4e96FHnuOPTrw9PfGkO3ruI32O4dh+5xLceg8uDrraRQ1UowHBzUF7ooO2DbWahtoku/YCnAu+d18qhmt/dn/a6KQ70sYn3ZHeevlv0q/ueyjdfd/D6cY7HkiLV/46Q9JTP3Fn+tjae9Nv7384/Wbdw+lLt65LW55+V1+A6nVetm19xq/SuTfdl+69/+F0930PpbNvui89/dS70qNOuD295IJfp2t+dn/63QMPp7t+91B637W/TZyX44hz9rfvS/esezjn4UPfuDdtfsojzy+4qfkmtU/z2ny9/n+gzB7ene2/PQAAAABJRU5ErkJggg==;" vertex="1" parent="1">
          <mxGeometry x="100" y="1640" width="622" height="316" as="geometry" />
        </mxCell>
      </root>
    </mxGraphModel>
  </diagram>
</mxfile>
